<svg width="400" height="400" viewBox="0 0 400 400" fill="none" xmlns="http://www.w3.org/2000/svg">
  <defs>
    <!-- 渐变定义 -->
    <linearGradient id="primaryGradient" x1="0%" y1="0%" x2="100%" y2="100%">
      <stop offset="0%" stop-color="#fef7ed" stop-opacity="0.8"/>
      <stop offset="50%" stop-color="#fde68a" stop-opacity="0.6"/>
      <stop offset="100%" stop-color="#d97706" stop-opacity="0.4"/>
    </linearGradient>
    
    <radialGradient id="centerGradient" cx="50%" cy="50%" r="50%">
      <stop offset="0%" stop-color="#92400e" stop-opacity="0.1"/>
      <stop offset="100%" stop-color="#92400e" stop-opacity="0.05"/>
    </radialGradient>
    
    <!-- 中医纹样模式 -->
    <pattern id="tcmPattern" x="0" y="0" width="40" height="40" patternUnits="userSpaceOnUse">
      <circle cx="20" cy="20" r="2" fill="#d97706" opacity="0.3"/>
      <path d="M10,20 Q20,10 30,20 Q20,30 10,20" stroke="#b45309" stroke-width="0.5" fill="none" opacity="0.2"/>
    </pattern>
  </defs>
  
  <!-- 背景 -->
  <rect width="400" height="400" fill="url(#primaryGradient)"/>
  <rect width="400" height="400" fill="url(#tcmPattern)"/>
  
  <!-- 中心太极图 -->
  <g transform="translate(200, 200)">
    <!-- 外圆 -->
    <circle cx="0" cy="0" r="80" fill="url(#centerGradient)" stroke="#92400e" stroke-width="2" opacity="0.8"/>
    
    <!-- 太极阴阳 -->
    <path d="M0,-80 A80,80 0 0,1 0,80 A40,40 0 0,1 0,0 A40,40 0 0,0 0,-80 Z" fill="#92400e" opacity="0.6"/>
    <path d="M0,80 A80,80 0 0,1 0,-80 A40,40 0 0,1 0,0 A40,40 0 0,0 0,80 Z" fill="#fef7ed" opacity="0.8"/>
    
    <!-- 阴阳鱼眼 -->
    <circle cx="0" cy="-40" r="8" fill="#fef7ed" opacity="0.9"/>
    <circle cx="0" cy="-40" r="3" fill="#92400e" opacity="0.7"/>
    <circle cx="0" cy="40" r="8" fill="#92400e" opacity="0.7"/>
    <circle cx="0" cy="40" r="3" fill="#fef7ed" opacity="0.9"/>
  </g>
  
  <!-- 八卦符号 -->
  <g transform="translate(200, 200)" opacity="0.4">
    <!-- 乾卦 (上) -->
    <g transform="translate(0, -120)">
      <line x1="-15" y1="-8" x2="15" y2="-8" stroke="#92400e" stroke-width="3"/>
      <line x1="-15" y1="0" x2="15" y2="0" stroke="#92400e" stroke-width="3"/>
      <line x1="-15" y1="8" x2="15" y2="8" stroke="#92400e" stroke-width="3"/>
    </g>
    
    <!-- 坤卦 (下) -->
    <g transform="translate(0, 120)">
      <line x1="-15" y1="-8" x2="-5" y2="-8" stroke="#92400e" stroke-width="3"/>
      <line x1="5" y1="-8" x2="15" y2="-8" stroke="#92400e" stroke-width="3"/>
      <line x1="-15" y1="0" x2="-5" y2="0" stroke="#92400e" stroke-width="3"/>
      <line x1="5" y1="0" x2="15" y2="0" stroke="#92400e" stroke-width="3"/>
      <line x1="-15" y1="8" x2="-5" y2="8" stroke="#92400e" stroke-width="3"/>
      <line x1="5" y1="8" x2="15" y2="8" stroke="#92400e" stroke-width="3"/>
    </g>
    
    <!-- 离卦 (左) -->
    <g transform="translate(-120, 0)">
      <line x1="-15" y1="-8" x2="15" y2="-8" stroke="#92400e" stroke-width="3"/>
      <line x1="-15" y1="0" x2="-5" y2="0" stroke="#92400e" stroke-width="3"/>
      <line x1="5" y1="0" x2="15" y2="0" stroke="#92400e" stroke-width="3"/>
      <line x1="-15" y1="8" x2="15" y2="8" stroke="#92400e" stroke-width="3"/>
    </g>
    
    <!-- 坎卦 (右) -->
    <g transform="translate(120, 0)">
      <line x1="-15" y1="-8" x2="-5" y2="-8" stroke="#92400e" stroke-width="3"/>
      <line x1="5" y1="-8" x2="15" y2="-8" stroke="#92400e" stroke-width="3"/>
      <line x1="-15" y1="0" x2="15" y2="0" stroke="#92400e" stroke-width="3"/>
      <line x1="-15" y1="8" x2="-5" y2="8" stroke="#92400e" stroke-width="3"/>
      <line x1="5" y1="8" x2="15" y2="8" stroke="#92400e" stroke-width="3"/>
    </g>
  </g>
  
  <!-- 装饰性云纹 -->
  <g opacity="0.3">
    <!-- 左上角云纹 -->
    <path d="M50,80 Q70,60 90,80 Q110,60 130,80 Q110,100 90,80 Q70,100 50,80" 
          fill="none" stroke="#d97706" stroke-width="2"/>
    
    <!-- 右下角云纹 -->
    <path d="M270,320 Q290,300 310,320 Q330,300 350,320 Q330,340 310,320 Q290,340 270,320" 
          fill="none" stroke="#d97706" stroke-width="2"/>
    
    <!-- 左下角云纹 -->
    <path d="M50,320 Q70,300 90,320 Q110,300 130,320 Q110,340 90,320 Q70,340 50,320" 
          fill="none" stroke="#d97706" stroke-width="2"/>
    
    <!-- 右上角云纹 -->
    <path d="M270,80 Q290,60 310,80 Q330,60 350,80 Q330,100 310,80 Q290,100 270,80" 
          fill="none" stroke="#d97706" stroke-width="2"/>
  </g>
  
  <!-- 五行元素符号 -->
  <g opacity="0.5">
    <!-- 木 (东) -->
    <g transform="translate(320, 200)">
      <line x1="0" y1="-15" x2="0" y2="15" stroke="#166534" stroke-width="3"/>
      <line x1="-10" y1="-5" x2="10" y2="-5" stroke="#166534" stroke-width="2"/>
      <line x1="-8" y1="5" x2="8" y2="5" stroke="#166534" stroke-width="2"/>
    </g>
    
    <!-- 火 (南) -->
    <g transform="translate(200, 80)">
      <path d="M0,-10 L-8,8 L8,8 Z" fill="#dc2626" opacity="0.7"/>
      <path d="M0,-5 L-4,5 L4,5 Z" fill="#fef2f2"/>
    </g>
    
    <!-- 土 (中) -->
    <g transform="translate(200, 200)">
      <rect x="-8" y="-8" width="16" height="16" fill="#92400e" opacity="0.6"/>
      <rect x="-5" y="-5" width="10" height="10" fill="#fef7ed" opacity="0.8"/>
    </g>
    
    <!-- 金 (西) -->
    <g transform="translate(80, 200)">
      <circle cx="0" cy="0" r="8" fill="none" stroke="#d97706" stroke-width="2"/>
      <circle cx="0" cy="0" r="4" fill="#fef7ed" opacity="0.8"/>
    </g>
    
    <!-- 水 (北) -->
    <g transform="translate(200, 320)">
      <path d="M-10,0 Q-5,-8 0,0 Q5,-8 10,0 Q5,8 0,0 Q-5,8 -10,0" 
            fill="#166534" opacity="0.6"/>
    </g>
  </g>
  
  <!-- 边框装饰 -->
  <rect x="10" y="10" width="380" height="380" 
        fill="none" stroke="#92400e" stroke-width="2" 
        stroke-dasharray="10,5" opacity="0.4" rx="20"/>
</svg>
