<?xml version="1.0" encoding="UTF-8"?>
<svg width="100" height="100" viewBox="0 0 100 100" xmlns="http://www.w3.org/2000/svg">
  <circle cx="50" cy="50" r="49" fill="white" stroke="#FDE68A" stroke-width="1" />
  <path d="M50,0 A50,50 0 0,1 50,100 A25,25 0 0,1 50,50 A25,25 0 0,0 50,0" fill="black" />
  <path d="M50,0 A50,50 0 0,0 50,100 A25,25 0 0,0 50,50 A25,25 0 0,1 50,0" fill="white" />
  <circle cx="50" cy="25" r="6" fill="black" />
  <circle cx="50" cy="25" r="1.5" fill="white" />
  <circle cx="50" cy="75" r="6" fill="white" />
  <circle cx="50" cy="75" r="1.5" fill="black" />
</svg>